PathFileType	4	(X/Y/Z)	Patient4_TMGait_0pt3_02_left_03.trc.trc
DataRate	CameraRate	NumFrames	NumMarkers	Units	OrigDataRate	OrigDataStartFrame	OrigNumFrames
49.469964664311	49.469964664311	6	33	mm	49.469964664311	18	       141
Frame#	Time	Sacral			L.Shoulder			Chest			R.Shoulder			Neck			R.ASIS			L.ASIS			R.Thigh.Superior			R.Thigh.Lateral			R.Thigh.Inferior			R.Patella			L.Thigh.Superior			L.Thigh.Lateral			L.Thigh.Inferior			L.Patella			L.Shank.Superior			L.Shank.Lateral			L.Shank.Inferior			R.Shank.Superior			R.Shank.Lateral			R.Shank.Inferior			R.Heel			R.Midfoot.Superior			R.Midfoot.Lateral			R.Toe			L.Heel			L.Midfoot.Lateral			L.Midfoot.Superior			L.Toe			L.Elbow			L.Wrist			R.Elbow			R.Wrist			
		X1	Y1	Z1	X2	Y2	Z2	X3	Y3	Z3	X4	Y4	Z4	X5	Y5	Z5	X6	Y6	Z6	X7	Y7	Z7	X8	Y8	Z8	X9	Y9	Z9	X10	Y10	Z10	X11	Y11	Z11	X12	Y12	Z12	X13	Y13	Z13	X14	Y14	Z14	X15	Y15	Z15	X16	Y16	Z16	X17	Y17	Z17	X18	Y18	Z18	X19	Y19	Z19	X20	Y20	Z20	X21	Y21	Z21	X22	Y22	Z22	X23	Y23	Z23	X24	Y24	Z24	X25	Y25	Z25	X26	Y26	Z26	X27	Y27	Z27	X28	Y28	Z28	X29	Y29	Z29	X30	Y30	Z30	X31	Y31	Z31	X32	Y32	Z32	X33	Y33	Z33	

18	5.543642857143	701.543220660151	997.817463541690	605.262394445093	831.656117601249	1416.759544051115	376.089364861948	966.081937502799	1359.625478335644	516.482137028400	918.712471147894	1443.380781696865	699.105352125447	845.931124312805	1486.868246501604	529.015052564273	946.220354201150	934.857451425179	679.609378271749	887.986457553361	957.319300958910	410.517847180628	961.862693947083	724.586629833249	638.265043069724	877.825476409773	614.930950835676	700.137844733445	938.388041835500	563.065671610636	608.969119570602	929.122608022112	470.653360322641	611.308642260064	978.067965197328	777.192024435122	440.963854084217	930.125019574055	648.867249427296	365.431929608843	1031.291875256747	588.921970269725	428.891905438649	1057.042619212043	518.728994503567	421.789304054907	1029.103461376255	444.936087544785	407.766858660051	944.196764212113	329.826147963243	348.767059969219	1013.008210016389	215.000661152774	399.305974570040	883.401800123219	385.854954070419	616.970831514764	797.636223655771	291.827175627102	676.331853957526	818.221369162582	195.888386970291	607.589420259226	659.769122471797	44.159275288776	571.636272750004	830.560098902592	95.928716511576	614.268506154691	739.329612154581	37.161559715780	649.876700609427	947.716725297896	41.042364684843	650.223951034599	900.728758212940	48.942552499247	428.130781042928	976.157474264223	46.344266482377	349.867028318643	1057.205431831721	112.464112119756	374.388135170660	1185.507327605123	66.248405106401	348.768886682894	699.784752242442	1080.818642412693	308.391400060286	681.787341572821	823.314358037289	342.578133436786	1062.719314912845	1142.038028547493	837.902898941868	1312.658840025460	1141.325606722169	781.142459419229	
19	5.563857142857	700.382429563610	999.332127417342	604.351764268141	829.234813496044	1417.615585995810	373.946977205066	965.318398101212	1359.874271491256	512.619369902830	920.436431625362	1444.131204782262	695.602922526629	845.393371444237	1487.573529537128	526.648525838483	945.223777530818	935.086105334866	676.611413052233	884.941768170581	957.831592363752	407.879311618171	957.305985135786	724.147528826378	636.018302596055	872.084375292633	615.776822899738	699.164912950995	931.110787515875	562.872290556624	607.867177360663	920.619340479532	471.228206577914	610.596881117006	973.071409664626	775.922336480310	436.735424279180	921.840619632102	647.844767090213	362.475122732197	1023.184235286836	587.316743570508	424.695358680054	1048.662040989231	519.031369292471	418.863727711997	1023.921983061298	445.455614150045	405.413702235681	944.609897848522	326.121059554955	346.177891821394	1018.182865153692	214.571854820492	397.951381019496	875.640640667979	386.443389405822	616.588902934050	790.440214550005	292.131614906056	676.252072756556	811.387338371703	196.203287394994	607.551286607880	653.535980931840	43.984788613839	571.735035785186	824.383337219215	95.986470146078	614.435994287731	733.124276560334	37.059760523215	649.985525025054	941.525720895835	41.142789168029	650.134865697529	912.237957209038	45.121625971012	426.256673519092	989.073840689314	43.660000171839	349.177971525649	1067.813391482805	112.334478681374	374.377936017523	1197.993628205976	69.323966506028	351.479525994147	692.216801915031	1084.015631430943	308.199074363833	673.275070555540	826.532349967036	344.024467103003	1075.989582131185	1149.079313180046	831.190591835541	1323.891290748242	1163.902600364734	768.654761211815	
20	5.584071428571	699.378500078047	1000.204873481527	602.948495750763	827.395084750968	1417.849874252063	371.365052214894	964.763398371926	1359.592223920690	508.694550329727	921.832652369915	1444.337576201645	691.858422486549	845.043596584287	1487.763539746695	523.846606717644	944.347953065457	934.919025139228	673.631621203807	882.380871141493	957.723700464315	405.200153853448	953.408554121960	723.476788407735	633.784427561927	867.104040514863	616.257049035430	698.008827626142	924.810915101678	562.418305322073	606.680430601975	913.166597903368	471.420760282447	609.769341651473	968.539043494204	773.951957908379	432.378367257910	913.820880570831	646.142735604510	359.727007104179	1015.491502886877	585.126652873575	420.606100984812	1040.340293098652	518.372450605091	416.077400781532	1018.319613305599	445.105815472881	403.125953219675	943.471125696114	322.541141960465	344.213254300339	1020.906248831834	213.910383564608	396.912972528902	868.687243601204	386.672519603800	616.044963742025	783.792143463026	292.318267117562	676.030336190832	804.879808979800	196.328673586237	607.427079113417	647.320310132463	43.824626476927	571.793705078069	818.214920976933	96.009085098528	614.530638036429	726.928482631903	36.958008727873	650.061152226370	935.344267620312	41.219150832663	650.054779570609	920.111339070938	42.266788016982	425.188624656855	997.853205124837	41.725435256468	348.855017435184	1074.869999773209	112.074472319016	374.538805356403	1206.293060738209	71.377113883326	353.425860414994	686.225925929192	1086.202294040196	307.538268419241	666.734941489547	828.683616624874	345.042025998984	1087.890544449585	1155.458516899257	824.081259631225	1333.004366286275	1184.445767245986	756.518167228389	
21	5.604285714286	698.550440961606	1000.505464820757	601.074558952544	826.084913274771	1417.523381866563	368.330244501780	964.401424437001	1358.860353425154	504.683554601755	922.912453738106	1444.078210173702	687.872542406464	844.854884862175	1487.499440781400	520.602121810479	943.624679006435	934.411299947210	670.639756574045	880.306473905141	957.093622903564	402.460368564398	950.220226502952	722.598519180159	631.537614003673	862.923261638414	616.394016189310	696.636776382281	919.535034540224	561.713847767795	605.372963930196	906.810451665611	471.233689222329	608.784991065113	964.572026164317	771.474427837551	428.006929283445	906.338922867543	643.949014497584	357.223858664977	1008.448078380826	582.567243354878	416.722852427811	1032.354576517794	516.928269196664	413.468183144445	1012.563947295821	443.999595634358	400.923776847667	940.981878706456	319.107296282724	342.816133255788	1021.389601964022	212.921769010008	396.160311672506	862.562707838128	386.559683855494	615.312328717907	777.712524485331	292.410225275832	675.658080720959	798.709885093167	196.281919338478	607.214167454412	641.129438438374	43.692190903737	571.824651164525	812.063619130087	95.998802364532	614.556105021483	720.749501038868	36.861044314867	650.106454724847	929.177402489366	41.265431061787	649.987546448296	924.441742189368	40.178328913327	424.864415387788	1002.605436105844	40.316131594724	348.831790937862	1078.549903985502	111.488924830626	374.825636150621	1210.644532931437	72.162125495160	354.560628507827	681.811271928100	1087.375513147159	306.354471387798	662.139749211037	829.785997344626	345.553128543771	1098.330495503306	1161.098555057060	816.722429521281	1340.174165222226	1202.802961780841	744.858160506170	
22	5.624500000000	697.912279411679	1000.354611572536	598.762937628133	825.238458647214	1416.743367860400	364.853327654296	964.218219128331	1357.794261352499	500.560714454264	923.720992008874	1443.469829897495	683.650080739671	844.805036284706	1486.879451771267	516.924947327565	943.073347520900	933.645860539797	667.595928350087	878.702969111565	956.088761583950	399.632360975733	947.727214762581	721.555609441421	629.246922067552	859.507800997951	616.242995919296	695.027514461880	915.240465058343	560.793819882118	603.917524907334	901.502633905321	470.705267043524	607.618280307248	961.253770353452	768.733069092860	423.739710840560	899.674808840038	641.502576729176	354.952871461012	1002.267666159367	579.878834455710	413.124003259933	1024.978891380740	514.935226848392	411.056822912675	1006.945171038076	442.317663684610	398.822016188915	937.481732638450	315.881936973723	341.848545853153	1019.989217003523	211.598132432279	395.636082300683	857.220108440059	386.156353650415	614.381971328405	772.171959039859	292.446144993846	675.138456364809	792.860380249378	196.100961810083	606.918185790883	634.968914377994	43.607032415869	571.840770349776	805.939241181831	95.963451851421	614.522986244770	714.593837768560	36.778300191353	650.126181150515	923.029055667768	41.275822425348	649.936554686448	925.543285501847	38.703986797248	425.133674294479	1003.720771067491	39.253472257472	349.015747681619	1079.240052359668	110.482221752100	375.189928110429	1211.524669969588	71.601198225805	354.963831638085	678.940608789856	1087.596626771969	304.613301057497	659.443794341339	829.915625719195	345.469984642868	1107.269926959644	1165.971461660764	809.267303430495	1345.606253526672	1218.907340893195	733.779757422811	
23	5.644714285714	697.468288351893	999.904910602463	596.050714494185	824.782650163984	1415.647787613828	360.968960761250	964.200723530851	1356.528043416735	496.304758617906	924.327709630491	1442.649921810544	679.203609043554	844.877505943069	1486.024626462425	512.842567675080	942.695689215122	932.721543182944	664.457279473312	877.539720839695	954.882872446166	396.684350544280	945.852657191928	720.404714462234	626.880673673976	856.756171917703	615.884964114958	693.173371438585	911.804065078458	559.714603528864	602.298037510674	897.112109937641	469.903964799111	606.261091996145	958.646153625094	765.993844286312	419.685282180064	894.089993288645	639.061400432427	352.855843499981	997.129332770932	577.299502060645	409.858659291490	1018.465889174123	512.659285246872	408.846122882637	1001.750132264069	440.282335314384	396.829491933678	933.398947342547	312.957650993632	341.121302945959	1017.157366225966	210.007620034541	395.268284698989	852.555288887320	385.541388487992	613.262765602090	767.097735394218	292.476566991077	674.484234932326	787.290668907997	195.839760131941	606.551545762932	628.842719192649	43.595170255356	571.853958844853	799.852196058384	95.915664742352	614.446528222143	708.467147127833	36.724936143240	650.126312229297	916.902001595740	41.244889705257	649.904485531711	923.907827036085	37.727265307951	425.794506464963	1001.805651098828	38.412458471149	349.305662171569	1077.475423771932	109.066583024759	375.583386170710	1209.577405460082	69.808020081025	354.803955579708	677.542259016960	1086.983097291544	302.300580745824	658.579574353388	829.197598676458	344.702011687037	1114.726523453722	1170.091600402278	801.865136046416	1349.532738738511	1232.764450159607	723.365735729878	
